<svg width="720" height="480" viewBox="0 0 720 480" fill="none" xmlns="http://www.w3.org/2000/svg">
  <defs>
    <linearGradient id="listingLightSky" x1="88" y1="54" x2="520" y2="372" gradientUnits="userSpaceOnUse">
      <stop stop-color="#F7F0DD"/>
      <stop offset="1" stop-color="#DCE9C8"/>
    </linearGradient>
    <linearGradient id="listingLightGround" x1="90" y1="270" x2="620" y2="444" gradientUnits="userSpaceOnUse">
      <stop stop-color="#87B978"/>
      <stop offset="1" stop-color="#456F3D"/>
    </linearGradient>
  </defs>
  <rect width="720" height="480" rx="28" fill="#1C3A1C"/>
  <rect x="20" y="20" width="680" height="440" rx="18" fill="url(#listingLightSky)"/>
  <circle cx="558" cy="118" r="36" fill="#FFF2B8"/>
  <path d="M20 326C110 268 208 258 302 286C412 318 520 318 622 286C658 276 684 276 700 284V460H20V326Z" fill="url(#listingLightGround)"/>
  <g opacity="0.98">
    <ellipse cx="330" cy="290" rx="114" ry="66" fill="#FAF5EA"/>
    <circle cx="434" cy="246" r="40" fill="#FAF5EA"/>
    <ellipse cx="460" cy="234" rx="12" ry="18" fill="#FAF5EA"/>
    <path d="M388 230L408 192L428 224" stroke="#8B5E3C" stroke-width="10" stroke-linecap="round" stroke-linejoin="round"/>
    <path d="M422 230L444 192L464 224" stroke="#8B5E3C" stroke-width="10" stroke-linecap="round" stroke-linejoin="round"/>
    <rect x="244" y="344" width="14" height="96" rx="7" fill="#5C3317"/>
    <rect x="304" y="344" width="14" height="96" rx="7" fill="#5C3317"/>
    <rect x="360" y="344" width="14" height="96" rx="7" fill="#5C3317"/>
    <rect x="420" y="344" width="14" height="96" rx="7" fill="#5C3317"/>
    <rect x="392" y="248" width="44" height="10" rx="5" fill="#D77B52"/>
  </g>
</svg>
