<svg width="720" height="480" viewBox="0 0 720 480" fill="none" xmlns="http://www.w3.org/2000/svg">
  <defs>
    <linearGradient id="listingBrownSky" x1="94" y1="48" x2="514" y2="372" gradientUnits="userSpaceOnUse">
      <stop stop-color="#F7F0DD"/>
      <stop offset="1" stop-color="#D9E7C0"/>
    </linearGradient>
    <linearGradient id="listingBrownGround" x1="80" y1="264" x2="616" y2="448" gradientUnits="userSpaceOnUse">
      <stop stop-color="#80B56E"/>
      <stop offset="1" stop-color="#406C37"/>
    </linearGradient>
  </defs>
  <rect width="720" height="480" rx="28" fill="#1C3A1C"/>
  <rect x="20" y="20" width="680" height="440" rx="18" fill="url(#listingBrownSky)"/>
  <circle cx="560" cy="118" r="36" fill="#FFF2B8"/>
  <path d="M20 320C120 262 214 256 308 284C414 316 520 316 622 284C658 274 684 274 700 282V460H20V320Z" fill="url(#listingBrownGround)"/>
  <g opacity="0.98">
    <ellipse cx="334" cy="288" rx="114" ry="66" fill="#8B5E3C"/>
    <circle cx="438" cy="244" r="40" fill="#8B5E3C"/>
    <ellipse cx="464" cy="232" rx="12" ry="18" fill="#8B5E3C"/>
    <path d="M392 228L412 190L432 222" stroke="#F7F0DD" stroke-width="10" stroke-linecap="round" stroke-linejoin="round"/>
    <path d="M426 228L448 190L468 222" stroke="#F7F0DD" stroke-width="10" stroke-linecap="round" stroke-linejoin="round"/>
    <rect x="248" y="342" width="14" height="96" rx="7" fill="#5C3317"/>
    <rect x="306" y="342" width="14" height="96" rx="7" fill="#5C3317"/>
    <rect x="362" y="342" width="14" height="96" rx="7" fill="#5C3317"/>
    <rect x="422" y="342" width="14" height="96" rx="7" fill="#5C3317"/>
    <rect x="396" y="246" width="44" height="10" rx="5" fill="#FFF2B8"/>
  </g>
</svg>
