<svg width="880" height="560" viewBox="0 0 880 560" fill="none" xmlns="http://www.w3.org/2000/svg">
  <defs>
    <linearGradient id="buyersSky" x1="114" y1="52" x2="644" y2="470" gradientUnits="userSpaceOnUse">
      <stop stop-color="#F8F0E1"/>
      <stop offset="1" stop-color="#E0ECCF"/>
    </linearGradient>
    <linearGradient id="buyersGround" x1="90" y1="346" x2="790" y2="528" gradientUnits="userSpaceOnUse">
      <stop stop-color="#7AAE69"/>
      <stop offset="1" stop-color="#3F6A35"/>
    </linearGradient>
  </defs>
  <rect width="880" height="560" rx="36" fill="#214321"/>
  <rect x="28" y="28" width="824" height="504" rx="24" fill="url(#buyersSky)"/>
  <circle cx="700" cy="120" r="44" fill="#FFF2B8"/>
  <path d="M28 378C144 320 256 310 374 338C500 368 622 368 744 334C798 320 832 320 852 332V532H28V378Z" fill="url(#buyersGround)"/>
  <path d="M106 250L220 186L332 250V426H106V250Z" fill="#F6E6BF"/>
  <path d="M106 250H332L220 186L106 250Z" fill="#8B5E3C"/>
  <rect x="150" y="286" width="50" height="62" rx="10" fill="#D9C9A8"/>
  <rect x="236" y="286" width="50" height="62" rx="10" fill="#D9C9A8"/>
  <rect x="192" y="354" width="54" height="72" rx="12" fill="#5C3317"/>
  <rect x="468" y="286" width="196" height="112" rx="20" fill="#EFE8D6"/>
  <rect x="500" y="318" width="58" height="18" rx="9" fill="#D9C9A8"/>
  <rect x="500" y="348" width="132" height="18" rx="9" fill="#D9C9A8"/>
  <rect x="684" y="304" width="92" height="74" rx="18" fill="#25D366"/>
  <rect x="704" y="326" width="52" height="8" rx="4" fill="#FFFFFF"/>
  <rect x="704" y="344" width="38" height="8" rx="4" fill="#FFFFFF" fill-opacity="0.72"/>
  <g>
    <circle cx="468" cy="234" r="20" fill="#1C3A1C"/>
    <path d="M448 262C448 242 464 226 484 226C504 226 520 242 520 262V330H448V262Z" fill="#5CAD5C"/>
    <rect x="466" y="330" width="12" height="68" rx="6" fill="#5C3317"/>
    <rect x="492" y="330" width="12" height="68" rx="6" fill="#5C3317"/>
  </g>
  <g>
    <circle cx="548" cy="226" r="20" fill="#1C3A1C"/>
    <path d="M528 254C528 234 544 218 564 218C584 218 600 234 600 254V330H528V254Z" fill="#8B5E3C"/>
    <rect x="546" y="330" width="12" height="68" rx="6" fill="#5C3317"/>
    <rect x="572" y="330" width="12" height="68" rx="6" fill="#5C3317"/>
  </g>
  <g opacity="0.95">
    <ellipse cx="704" cy="426" rx="80" ry="50" fill="#FAF5EA"/>
    <circle cx="778" cy="392" r="28" fill="#FAF5EA"/>
    <ellipse cx="794" cy="382" rx="10" ry="14" fill="#FAF5EA"/>
    <path d="M750 378L764 354L780 374" stroke="#8B5E3C" stroke-width="8" stroke-linecap="round" stroke-linejoin="round"/>
    <path d="M774 378L790 354L804 374" stroke="#8B5E3C" stroke-width="8" stroke-linecap="round" stroke-linejoin="round"/>
    <rect x="650" y="470" width="12" height="52" rx="6" fill="#5C3317"/>
    <rect x="696" y="470" width="12" height="52" rx="6" fill="#5C3317"/>
    <rect x="744" y="470" width="12" height="52" rx="6" fill="#5C3317"/>
    <rect x="790" y="470" width="12" height="52" rx="6" fill="#5C3317"/>
  </g>
</svg>
